<?xml version="1.0" encoding="utf-8"?>
<!-- Generator: Adobe Illustrator 22.1.0, SVG Export Plug-In . SVG Version: 6.00 Build 0)  -->
<svg version="1.1" id="Lager_1" xmlns="http://www.w3.org/2000/svg" xmlns:xlink="http://www.w3.org/1999/xlink" x="0px" y="0px"
	 viewBox="0 0 460 84" style="enable-background:new 0 0 460 84;" xml:space="preserve">
<style type="text/css">
	.st0{fill:#333333;}
</style>
<g>
	<g>
		<rect x="2.8" y="4.3" class="st0" width="16.7" height="76.1"/>
		<path class="st0" d="M88.8,3C65.3,3,48.3,20.8,48.3,42.4v0.2c0,21.6,16.9,39.1,40.3,39.1c23.5,0,40.6-17.7,40.6-39.4v-0.2
			C129.1,20.5,112.3,3,88.8,3z M111.6,42.6c0,13-9.4,23.7-22.8,23.7c-13.5,0-23-10.9-23-23.9v-0.2c0-13,9.4-23.7,22.8-23.7
			c13.5,0,23.1,10.9,23.1,23.9V42.6z"/>
		<path class="st0" d="M271.4,34.9c-13.2-3.4-16.4-5-16.4-10v-0.2c0-3.7,3.4-6.6,9.8-6.6c6.4,0,13,2.8,19.8,7.5l8.7-12.6
			c-7.7-6.2-17.2-9.7-28.3-9.7c-15.5,0-26.6,9.1-26.6,22.9v0.2c0,15.1,9.9,19.4,25.2,23.3c12.7,3.3,15.3,5.4,15.3,9.7v0.2
			c0,4.5-4.1,7.2-11,7.2c-8.7,0-15.9-3.6-22.7-9.2l-9.9,11.9c9.1,8.2,20.8,12.2,32.3,12.2c16.4,0,27.9-8.5,27.9-23.6v-0.2
			C295.5,44.5,286.8,38.9,271.4,34.9z"/>
		<polygon class="st0" points="347.3,34.9 329.1,4.3 309.5,4.3 338.8,50.4 338.8,80.4 355.5,80.4 355.5,50.1 384.8,4.3 365.7,4.3 		
			"/>
		<path class="st0" d="M432.2,34.9c-13.2-3.4-16.4-5-16.4-10v-0.2c0-3.7,3.4-6.6,9.8-6.6c6.4,0,13,2.8,19.8,7.5l8.7-12.6
			c-7.7-6.2-17.2-9.7-28.3-9.7c-15.6,0-26.6,9.1-26.6,22.9v0.2c0,15.1,9.9,19.4,25.2,23.3c12.7,3.3,15.3,5.4,15.3,9.7v0.2
			c0,4.5-4.1,7.2-11,7.2c-8.7,0-15.9-3.6-22.7-9.2l-9.9,11.9c9.1,8.2,20.8,12.2,32.3,12.2c16.4,0,27.9-8.5,27.9-23.6v-0.2
			C456.3,44.5,447.6,38.9,432.2,34.9z"/>
		<path class="st0" d="M186,4.3h-31.5v15.3l30,0c8.5,0,13.8,4.1,13.8,11.7v0.2c0,6.6-5,11.7-13.4,11.7l-30.4,0v37.2h16.9V58.3h12.9
			c17.3,0,31.1-9.2,31.1-27.1V31C215.5,15.2,204.3,4.3,186,4.3z"/>
	</g>
</g>
</svg>
